<svg xmlns="http://www.w3.org/2000/svg" xmlns:xlink="http://www.w3.org/1999/xlink" width="500" zoomAndPan="magnify" viewBox="0 0 375 374.999991" height="500" preserveAspectRatio="xMidYMid meet" version="1.2"><defs><clipPath id="e034e54b58"><path d="M 12 26 L 336 26 L 336 349 L 12 349 Z M 12 26 "/></clipPath><clipPath id="fc1d54c0e7"><path d="M -52.066406 15.171875 L 362.53125 -12.191406 L 388.066406 374.714844 L -26.53125 402.082031 Z M -52.066406 15.171875 "/></clipPath><clipPath id="da5d4316b7"><path d="M -54.894531 -27.640625 L 403.859375 -57.921875 L 446.683594 590.914062 L -12.066406 621.195312 Z M -54.894531 -27.640625 "/></clipPath><clipPath id="daf6f7951e"><path d="M 252 46 L 319 46 L 319 118 L 252 118 Z M 252 46 "/></clipPath><clipPath id="cc2d1b68c4"><path d="M -52.066406 15.171875 L 362.53125 -12.191406 L 388.066406 374.714844 L -26.53125 402.082031 Z M -52.066406 15.171875 "/></clipPath><clipPath id="1f2081013f"><path d="M -54.894531 -27.640625 L 403.859375 -57.921875 L 446.683594 590.914062 L -12.066406 621.195312 Z M -54.894531 -27.640625 "/></clipPath><clipPath id="712e1a09ac"><path d="M 32 106 L 90 106 L 90 186 L 32 186 Z M 32 106 "/></clipPath><clipPath id="1096013a0d"><path d="M -52.066406 15.171875 L 362.53125 -12.191406 L 388.066406 374.714844 L -26.53125 402.082031 Z M -52.066406 15.171875 "/></clipPath><clipPath id="b5a24faced"><path d="M -54.894531 -27.640625 L 403.859375 -57.921875 L 446.683594 590.914062 L -12.066406 621.195312 Z M -54.894531 -27.640625 "/></clipPath><clipPath id="173c2d2773"><path d="M 223 110 L 250 110 L 250 120 L 223 120 Z M 223 110 "/></clipPath><clipPath id="9c96abc695"><path d="M -52.066406 15.171875 L 362.53125 -12.191406 L 388.066406 374.714844 L -26.53125 402.082031 Z M -52.066406 15.171875 "/></clipPath><clipPath id="eaff0cf8b0"><path d="M -54.894531 -27.640625 L 403.859375 -57.921875 L 446.683594 590.914062 L -12.066406 621.195312 Z M -54.894531 -27.640625 "/></clipPath><clipPath id="76490ee55f"><path d="M 105 143 L 124 143 L 124 163 L 105 163 Z M 105 143 "/></clipPath><clipPath id="e410e44777"><path d="M -52.066406 15.171875 L 362.53125 -12.191406 L 388.066406 374.714844 L -26.53125 402.082031 Z M -52.066406 15.171875 "/></clipPath><clipPath id="e98bc434a4"><path d="M -54.894531 -27.640625 L 403.859375 -57.921875 L 446.683594 590.914062 L -12.066406 621.195312 Z M -54.894531 -27.640625 "/></clipPath><clipPath id="53bb13af73"><path d="M 220 140 L 259 140 L 259 182 L 220 182 Z M 220 140 "/></clipPath><clipPath id="c9dee03411"><path d="M -52.066406 15.171875 L 362.53125 -12.191406 L 388.066406 374.714844 L -26.53125 402.082031 Z M -52.066406 15.171875 "/></clipPath><clipPath id="23147b477f"><path d="M -54.894531 -27.640625 L 403.859375 -57.921875 L 446.683594 590.914062 L -12.066406 621.195312 Z M -54.894531 -27.640625 "/></clipPath><clipPath id="330100b542"><path d="M 165 151 L 226 151 L 226 234 L 165 234 Z M 165 151 "/></clipPath><clipPath id="db13256e50"><path d="M -52.066406 15.171875 L 362.53125 -12.191406 L 388.066406 374.714844 L -26.53125 402.082031 Z M -52.066406 15.171875 "/></clipPath><clipPath id="90b3c7336d"><path d="M -54.894531 -27.640625 L 403.859375 -57.921875 L 446.683594 590.914062 L -12.066406 621.195312 Z M -54.894531 -27.640625 "/></clipPath><clipPath id="a7bc9c61fa"><path d="M 117 172 L 155 172 L 155 214 L 117 214 Z M 117 172 "/></clipPath><clipPath id="cefa4e0fcf"><path d="M -52.066406 15.171875 L 362.53125 -12.191406 L 388.066406 374.714844 L -26.53125 402.082031 Z M -52.066406 15.171875 "/></clipPath><clipPath id="885755268c"><path d="M -54.894531 -27.640625 L 403.859375 -57.921875 L 446.683594 590.914062 L -12.066406 621.195312 Z M -54.894531 -27.640625 "/></clipPath></defs><g id="c790ad94f7"><rect x="0" width="375" y="0" height="374.999991" style="fill:#ffffff;fill-opacity:1;stroke:none;"/><rect x="0" width="375" y="0" height="374.999991" style="fill:#c0cbb7;fill-opacity:1;stroke:none;"/><g clip-rule="nonzero" clip-path="url(#e034e54b58)"><g clip-rule="nonzero" clip-path="url(#fc1d54c0e7)"><g clip-rule="nonzero" clip-path="url(#da5d4316b7)"><path style=" stroke:none;fill-rule:nonzero;fill:#747575;fill-opacity:1;" d="M 261.730469 28.375 C 252.257812 31.457031 241.226562 38.867188 233.265625 47.378906 L 225.742188 55.554688 L 218.3125 53.511719 C 182.511719 43.972656 129.546875 59.445312 101.84375 87.613281 L 95.4375 94.105469 L 85.9375 90.96875 C 58.699219 82.015625 29.5 95.691406 18.003906 122.789062 C 1.925781 160.710938 25.34375 200.25 64.15625 200.757812 C 73.84375 200.886719 73.847656 200.964844 74.164062 205.78125 C 75.59375 227.417969 93.242188 251.671875 113.6875 260.074219 L 122.289062 263.578125 L 118.25 271.0625 C 103.382812 298.230469 108.867188 326.664062 130.238281 334.007812 C 133.300781 335.035156 137.621094 337.667969 139.839844 339.824219 C 153.765625 353.035156 179.054688 349.90625 186.296875 333.992188 L 188.976562 328.058594 L 202.507812 327.164062 C 217.113281 326.199219 218.230469 324.515625 207.402344 319.851562 C 201.707031 317.3125 201.175781 317.421875 195.113281 322.125 L 189.925781 326.152344 L 188.511719 319.871094 C 185.492188 306.710938 176.660156 298.539062 161.203125 294.71875 C 158.082031 293.929688 154.269531 292.03125 152.628906 290.449219 C 151.070312 288.9375 148.839844 287.703125 147.691406 287.777344 C 141.039062 288.21875 152.210938 296.925781 162.996094 299.746094 C 177.058594 303.425781 185.894531 315.128906 183.460938 327.117188 C 182.25 333.1875 179.566406 336.742188 179.300781 332.691406 C 179.042969 328.789062 173.382812 319.871094 171.242188 320.011719 C 168.644531 320.183594 169 323.234375 172.074219 326.792969 C 175.652344 330.933594 175.738281 339.222656 172.269531 341.371094 C 167.699219 344.28125 166.667969 343.738281 164.453125 336.972656 C 161.945312 329.226562 158.339844 324.628906 156.066406 326.238281 C 154.894531 327.082031 155.410156 329.121094 157.828125 333.183594 C 165.519531 346.117188 154.160156 347.402344 141.140625 335.132812 C 138.855469 333.054688 134.140625 330.292969 130.59375 328.917969 C 114.074219 322.941406 109.988281 302.9375 120.269531 278.378906 C 124.511719 268.191406 126.660156 264.671875 128.382812 265.171875 C 159.113281 274.660156 223.796875 263.40625 256.003906 242.925781 C 267.714844 235.394531 266.230469 235.03125 274.558594 248.304688 C 292.238281 276.550781 292.871094 301.234375 276.367188 316.453125 C 273.03125 319.4375 267.617188 324.632812 264.304688 328 C 251.058594 341.390625 242.308594 341.433594 248.101562 327.996094 C 251.097656 321.039062 251.292969 319.335938 249.074219 319.484375 C 246.550781 319.648438 242.0625 329.546875 242.363281 334.132812 C 242.667969 338.71875 241.773438 339.164062 235.734375 337.257812 C 231.035156 335.878906 230.4375 332.617188 233.449219 323.585938 C 234.523438 320.058594 235.074219 316.796875 234.503906 316.296875 C 232.628906 314.65625 229.195312 319.644531 228.542969 324.832031 C 227.3125 335.28125 222.222656 331.46875 221.429688 319.464844 C 220.6875 308.226562 227.558594 299.480469 241.40625 294.035156 C 247.691406 291.546875 255.210938 283.292969 253.433594 280.800781 C 252.589844 279.625 251.023438 280.34375 248.441406 283.125 C 246.367188 285.414062 240.265625 289.578125 234.847656 292.394531 C 203.6875 308.964844 214.132812 347.359375 248.351562 342.261719 C 256.863281 340.929688 259.375 339.382812 276.25 323.988281 C 298.710938 303.613281 298.050781 270.328125 274.632812 240.160156 C 269.597656 233.65625 269.402344 233.054688 271.90625 231.433594 C 294.449219 216.964844 307.144531 182.417969 301.070312 152.023438 C 299.554688 144.214844 298.507812 137.679688 298.722656 137.433594 C 299.019531 137.261719 302.207031 135.515625 305.921875 133.65625 C 332.953125 119.664062 344.316406 80.132812 328.453125 54.996094 C 314.546875 32.796875 284.738281 20.945312 261.730469 28.375 Z M 294.285156 34.136719 C 337.613281 47.171875 343.808594 102.667969 304.820312 128.585938 C 295.699219 134.640625 295.851562 134.628906 294.335938 129.125 C 287.832031 105.058594 258.84375 69.574219 238.527344 60.777344 C 230.625 57.382812 230.429688 56.78125 235.601562 51.371094 C 251.980469 34.242188 273.523438 27.902344 294.285156 34.136719 Z M 213.976562 57.636719 C 273.300781 68.695312 317.042969 154.347656 289.03125 204.652344 C 270.5625 237.816406 220.683594 261.613281 166.410156 263.046875 C 116.125 264.445312 89.753906 248.832031 80.664062 212.339844 C 79.308594 206.902344 77.847656 201.082031 77.425781 199.34375 C 76.78125 196.546875 75.292969 196.109375 65.609375 195.980469 C 1.871094 194.808594 1.511719 98.613281 65.273438 94.328125 C 77.8125 93.5 80.90625 93.835938 88.089844 96.816406 L 96.300781 100.191406 L 99.574219 96.289062 C 122.308594 68.449219 175.640625 50.414062 213.976562 57.636719 Z M 213.976562 57.636719 "/></g></g></g><g clip-rule="nonzero" clip-path="url(#daf6f7951e)"><g clip-rule="nonzero" clip-path="url(#cc2d1b68c4)"><g clip-rule="nonzero" clip-path="url(#1f2081013f)"><path style=" stroke:none;fill-rule:nonzero;fill:#747575;fill-opacity:1;" d="M 264.15625 48.871094 C 257.292969 53.085938 253.597656 57.554688 253.011719 62.664062 L 252.4375 67.921875 L 255.664062 64.484375 C 260.039062 59.742188 268.820312 55.550781 274.9375 55.148438 C 306.140625 53.164062 322.207031 90.65625 298.828125 111.089844 C 291.859375 117.230469 294.429688 120.054688 303.050781 115.726562 C 310.335938 112.09375 320.542969 93.375 318.527344 87.289062 C 318.339844 86.761719 317.511719 82.363281 316.734375 77.578125 C 314.171875 63.15625 303.289062 51.894531 288.796875 48.703125 C 277.734375 46.285156 268.214844 46.378906 264.15625 48.871094 Z M 264.15625 48.871094 "/></g></g></g><g clip-rule="nonzero" clip-path="url(#712e1a09ac)"><g clip-rule="nonzero" clip-path="url(#1096013a0d)"><g clip-rule="nonzero" clip-path="url(#b5a24faced)"><path style=" stroke:none;fill-rule:nonzero;fill:#747575;fill-opacity:1;" d="M 67.65625 107.148438 C 66.398438 107.921875 62.71875 109.164062 59.457031 109.765625 C 56.121094 110.445312 53.21875 111.789062 52.972656 112.726562 C 52.722656 113.585938 51.988281 114.097656 51.273438 113.757812 C 49.125 112.597656 38.003906 125.617188 34.875 132.886719 C 29.957031 144.5 33.414062 166.621094 41.335938 173.777344 C 42.722656 174.988281 44.875 177.382812 46.210938 178.984375 C 47.472656 180.664062 49.078125 181.710938 49.664062 181.289062 C 50.25 180.867188 51.988281 181.597656 53.535156 182.953125 C 56.472656 185.523438 77.691406 185.890625 76.828125 183.335938 C 76.632812 182.65625 77.53125 181.140625 78.832031 179.902344 C 81.585938 177.414062 83.835938 169.664062 81.273438 171.523438 C 80.390625 172.121094 79.617188 172.015625 79.558594 171.175781 C 79.507812 170.410156 80.507812 169.269531 81.703125 168.730469 C 83.265625 168.011719 83.789062 165.445312 83.457031 160.398438 C 83.1875 156.347656 83.75 149.703125 84.710938 145.648438 C 85.671875 141.589844 86.066406 138.261719 85.605469 138.292969 C 85.070312 138.328125 85.464844 137.304688 86.449219 135.933594 C 87.363281 134.644531 87.765625 132.621094 87.148438 131.433594 C 86.609375 130.242188 87.101562 128.367188 88.257812 127.289062 C 91.945312 123.824219 86.078125 111.691406 79.988281 110.175781 C 78.351562 109.820312 77.363281 108.8125 77.773438 108.015625 C 78.179688 107.222656 77.476562 107.039062 76.207031 107.582031 C 74.941406 108.203125 72.933594 108.03125 71.886719 107.253906 C 70.675781 106.414062 68.910156 106.375 67.65625 107.148438 Z M 77.320312 117.492188 C 83.109375 119.105469 83.308594 119.785156 79.710938 128.085938 C 75.519531 137.882812 72.472656 156.898438 73.242188 168.519531 C 74.027344 180.449219 72.339844 181.636719 60.394531 177.507812 C 24.964844 165.410156 41.261719 107.507812 77.320312 117.492188 Z M 77.320312 117.492188 "/></g></g></g><g clip-rule="nonzero" clip-path="url(#173c2d2773)"><g clip-rule="nonzero" clip-path="url(#9c96abc695)"><g clip-rule="nonzero" clip-path="url(#eaff0cf8b0)"><path style=" stroke:none;fill-rule:nonzero;fill:#747575;fill-opacity:1;" d="M 224.789062 112.058594 C 221.417969 114.507812 224.792969 116.820312 231.21875 116.394531 C 234.582031 116.175781 239.46875 116.925781 242.078125 118.058594 C 246.738281 120.054688 249.695312 119.476562 249.503906 116.570312 C 249.21875 112.214844 229.550781 108.597656 224.789062 112.058594 Z M 224.789062 112.058594 "/></g></g></g><g clip-rule="nonzero" clip-path="url(#76490ee55f)"><g clip-rule="nonzero" clip-path="url(#e410e44777)"><g clip-rule="nonzero" clip-path="url(#e98bc434a4)"><path style=" stroke:none;fill-rule:nonzero;fill:#747575;fill-opacity:1;" d="M 114.078125 147.320312 C 108.175781 152.164062 104.355469 158.25 105.601562 160.855469 C 107.125 164.132812 108.835938 163.332031 111.558594 158.003906 C 112.839844 155.308594 116.21875 151.863281 119.035156 150.292969 C 124.367188 147.332031 125.640625 143.332031 121.128906 143.628906 C 119.601562 143.730469 116.484375 145.394531 114.078125 147.320312 Z M 114.078125 147.320312 "/></g></g></g><g clip-rule="nonzero" clip-path="url(#53bb13af73)"><g clip-rule="nonzero" clip-path="url(#c9dee03411)"><g clip-rule="nonzero" clip-path="url(#23147b477f)"><path style=" stroke:none;fill-rule:nonzero;fill:#747575;fill-opacity:1;" d="M 226.273438 145.058594 C 209.835938 162.421875 230.460938 191.011719 250.621094 178.851562 C 262.140625 171.871094 261.101562 151.515625 248.792969 143.035156 C 242.519531 138.6875 231.296875 139.734375 226.273438 145.058594 Z M 247.1875 151.28125 C 247.386719 154.261719 243.453125 157.515625 240.636719 156.703125 C 237.8125 155.816406 237.042969 148.800781 239.652344 147.632812 C 242.269531 146.535156 247.027344 148.832031 247.1875 151.28125 Z M 247.1875 151.28125 "/></g></g></g><g clip-rule="nonzero" clip-path="url(#330100b542)"><g clip-rule="nonzero" clip-path="url(#db13256e50)"><g clip-rule="nonzero" clip-path="url(#90b3c7336d)"><path style=" stroke:none;fill-rule:nonzero;fill:#747575;fill-opacity:1;" d="M 174.847656 154.75 C 167.40625 159.464844 164.710938 168.703125 165.742188 185.453125 C 167.074219 205.636719 173.734375 213.492188 189.816406 213.964844 C 194.585938 214.113281 197.640625 214.984375 197.714844 216.132812 C 197.785156 217.203125 198.445312 220.230469 199.164062 222.949219 L 200.488281 227.929688 L 193.480469 227.625 C 189.628906 227.417969 184.226562 225.855469 181.507812 224.191406 C 176.460938 221.066406 173.148438 223.207031 176.28125 227.605469 C 185.933594 241.253906 226.171875 228.460938 225.09375 212.097656 C 224.734375 206.671875 222.027344 207.539062 218.011719 214.179688 C 214.425781 220.328125 207.035156 227.035156 205.554688 225.523438 C 201.527344 221.5625 202.359375 212.0625 207.050781 208.683594 C 231.332031 191.414062 199.988281 138.882812 174.847656 154.75 Z M 194.507812 172.1875 C 195.726562 173.183594 196.28125 174.605469 195.871094 175.402344 C 195.460938 176.195312 195.90625 177.089844 196.917969 177.328125 C 197.9375 177.644531 199.273438 181.550781 199.960938 186.1875 C 201.308594 194.929688 200.601562 195.898438 191.773438 199.402344 C 188.179688 200.789062 178.816406 191.578125 181.085938 188.742188 C 182.367188 187.195312 182.28125 187.050781 180.660156 188.078125 C 179.191406 189.097656 178.867188 188.886719 179.691406 187.375 C 180.308594 186.257812 180.632812 181.859375 180.429688 177.648438 C 180.175781 171.445312 180.609375 169.882812 182.878906 169.347656 C 184.390625 169.015625 186.039062 168.371094 186.46875 167.882812 C 187.253906 166.984375 190.035156 168.414062 194.507812 172.1875 Z M 194.507812 172.1875 "/></g></g></g><g clip-rule="nonzero" clip-path="url(#a7bc9c61fa)"><g clip-rule="nonzero" clip-path="url(#cefa4e0fcf)"><g clip-rule="nonzero" clip-path="url(#885755268c)"><path style=" stroke:none;fill-rule:nonzero;fill:#747575;fill-opacity:1;" d="M 123.460938 177.800781 C 110.816406 191 120.34375 214.328125 137.851562 213.171875 C 145.957031 212.636719 150.714844 209.097656 153.164062 202.027344 C 160.441406 180.8125 138.121094 162.550781 123.460938 177.800781 Z M 143.199219 181.335938 C 145.511719 183.792969 143.425781 188.230469 139.832031 188.46875 C 136.238281 188.707031 133.585938 184.582031 135.554688 181.839844 C 136.539062 180.46875 138.15625 179.363281 139.226562 179.292969 C 140.296875 179.222656 142.042969 180.105469 143.199219 181.335938 Z M 143.199219 181.335938 "/></g></g></g></g></svg>